<svg xmlns="http://www.w3.org/2000/svg" viewBox="0 0 256 256" fill="none">
  <path d="M22 105C36 60 84 28 140 28C182 28 217 42 236 68C198 51 149 47 107 57C71 66 41 82 22 105Z" fill="#34218D"/>
  <path d="M34 96C66 78 108 70 151 72C194 74 224 88 239 113C213 92 176 86 140 88C99 90 62 97 34 96Z" fill="#1359A6"/>
  <path d="M48 114C71 107 98 105 124 109C167 116 198 142 208 176C189 155 164 145 140 142C102 138 67 143 48 114Z" fill="#1A93E6"/>
  <path d="M86 132C105 143 119 162 120 182C121 197 113 211 98 220C111 201 108 182 97 168C87 155 73 147 62 146C68 136 76 132 86 132Z" fill="#34218D"/>
</svg>
